<svg xmlns="http://www.w3.org/2000/svg" xmlns:xlink="http://www.w3.org/1999/xlink" id="Layer_1" width="1080" height="1080" x="0" y="0" version="1.1" viewBox="0 0 1080 1080" style="enable-background:new 0 0 1080 1080" xml:space="preserve"><style type="text/css">.st0{fill:#faa41a}.st1{stroke:#faa41a}.st1,.st2,.st3{fill:none;stroke-width:33.9668;stroke-linecap:round;stroke-linejoin:round}.st2{clip-path:url(#SVGID_2_);stroke:#383747}.st3{stroke:#fff}</style><g><path d="M583.8,375.7c-189.1,23-189.6,110.4-166.6,205.9l97.7,87c166.6,66.9,210-66.5,243.1-216.5L583.8,375.7z M583.8,375.7" class="st0"/><path d="M583.8,375.7c-189.1,23-189.6,110.4-166.6,205.9l97.7,87c166.6,66.9,210-66.5,243.1-216.5L583.8,375.7z M583.8,375.7" class="st1"/><path d="M762.2,461.1c68.5,1.3,123.3,80.5,122.4,177c-0.8,93.4-52.3,169.3-118.5,172.5c-10.7,0-375.6,0.4-387.3,0.5 c-58,1.5-122.3,2.8-155.6-34.3c-34.9-38.6-35.2-129-29.2-184.7c10.6-100.8,113.1-190.1,218.8-218.5c9.5-2.5,68.4-21,150.3-3.6 M513.8,663c23.2,17.8,51.6,27.3,80.8,27.3c66,0,120.6-47.8,131.2-110.5c1.2-7.3,44.2-282.6,157.6-267.5 c20.7,2.8,43.5,7.7,59.1-6.3c19.6-17.6,21.2-47.8,3.6-67.3c-17.5-19.6-47.8-21.2-67.4-3.6c8.5-8.5,17.8-23.7,18.3-35.7 c0.9-26.4-19.6-48.6-45.9-49.5c-22.6-0.8-45.9,13.4-47.8,34.9c-17.5,192.1-226.6,166-308.6,206.6 c-81.9,40.5-116.6,106.3-78.6,183.2" class="st0"/><g><defs><rect id="SVGID_1_" width="883.1" height="815.2" x="98.4" y="132.4"/></defs><clipPath id="SVGID_2_"><use xlink:href="#SVGID_1_" style="overflow:visible"/></clipPath><path d="M762.2,461.1c68.5,1.3,123.3,80.5,122.4,177c-0.8,93.4-52.3,169.3-118.5,172.5c-10.7,0-375.6,0.4-387.3,0.5 c-58,1.5-122.3,2.8-155.6-34.3c-34.9-38.6-35.2-129-29.2-184.7c10.6-100.8,113.1-190.1,218.8-218.5c9.5-2.5,68.4-21,150.3-3.6 M513.8,663c23.2,17.8,51.6,27.3,80.8,27.3c66,0,120.6-47.8,131.2-110.5c1.2-7.3,44.2-282.6,157.6-267.5 c20.7,2.8,43.5,7.7,59.1-6.3c19.6-17.6,21.2-47.8,3.6-67.3c-17.5-19.6-47.8-21.2-67.4-3.6c8.5-8.5,17.8-23.7,18.3-35.7 c0.9-26.4-19.6-48.6-45.9-49.5c-22.6-0.8-45.9,13.4-47.8,34.9c-17.5,192.1-226.6,166-308.6,206.6 c-81.9,40.5-116.6,106.3-78.6,183.2 M121.7,863.9h834.2c-0.5,32.5-6.8,60.5-40.9,66.1H172.2C121.9,921.3,129.9,889.3,121.7,863.9 L121.7,863.9z M121.7,863.9" class="st2"/></g><path d="M466.9,522.2c-0.3-18.2,6.8-35.8,19.6-48.8c12.9-13,30.4-20.3,48.5-20.3" class="st3"/></g></svg>